<?xml version="1.0" encoding="utf-8"?>
<!-- Generator: Adobe Illustrator 27.5.0, SVG Export Plug-In . SVG Version: 6.00 Build 0)  -->
<svg version="1.1" xmlns="http://www.w3.org/2000/svg" xmlns:xlink="http://www.w3.org/1999/xlink" x="0px" y="0px"
	 viewBox="0 0 500 500" style="enable-background:new 0 0 500 500;" xml:space="preserve">
<g id="BACKGROUND">
	<rect style="fill:#FFFFFF;" width="500" height="500"/>
</g>
<g id="OBJECTS">
	<g>
		<g>
			<ellipse style="fill:#E4EAF8;" cx="250" cy="426.243" rx="206.357" ry="14.834"/>
			<g>
				<g>
					<g>
						<path style="fill:#C8EDB7;" d="M231.453,218.465c0,0,2.808-7.657-3.534-21.967c0,0,5.261,12.341,1.559,21.416L231.453,218.465
							z"/>
						<g>
							<path style="fill:#C8EDB7;" d="M317.905,280.732c0,0,19.344-2.207,43.085-31.061c0,0-20.697,24.441-44.023,26.259
								L317.905,280.732z"/>
							<path style="fill:#B7B7F9;" d="M301.54,239.585c0,0,15.329-12.003,20.462-49.015c0,0-4.849,31.658-23.774,45.413
								L301.54,239.585z"/>
							<path style="fill:#B7B7F9;" d="M157.299,267.614c0,0-11.518-15.697-48.35-21.985c0,0,31.491,5.836,44.647,25.183
								L157.299,267.614z"/>
							<path style="fill:#B7B7F9;" d="M250.475,218.691c0,0-0.891-8.436,9.135-21.263c0,0-8.437,11.115-7.004,21.208
								L250.475,218.691z"/>
							<path style="fill:#C8EDB7;" d="M202.208,221.846c0,0,8.1-9.355,1.001-22.68c0,0,4.071,15.223-2.415,21.084L202.208,221.846z"
								/>
							<path style="fill:#B7B7F9;" d="M333.193,275.487c0,0,16.926-9.62,53.113-0.309c0,0-31.127-7.541-51.04,4.741L333.193,275.487
								z"/>
						</g>
					</g>
					<g>
						<g>
							<path style="fill:#F3F3FF;" d="M290.837,280.751c0,0,40.038-112.361,93.438-75.665
								C437.674,241.781,290.837,280.751,290.837,280.751z"/>
							
								<line style="fill:none;stroke:#E1E0EE;stroke-linecap:round;stroke-miterlimit:10;" x1="373.614" y1="214.214" x2="294.731" y2="278.904"/>
							<path style="fill:none;stroke:#E1E0EE;stroke-linecap:round;stroke-miterlimit:10;" d="M362.128,223.032
								c-3.751-7.572-5.683-16.037-5.588-24.486"/>
							<path style="fill:none;stroke:#E1E0EE;stroke-linecap:round;stroke-miterlimit:10;" d="M351.876,232.142
								c-8.998-3.174-16.156-11.117-18.379-20.396"/>
							<path style="fill:none;stroke:#E1E0EE;stroke-linecap:round;stroke-miterlimit:10;" d="M339.183,242.261
								c-3.774-0.633-7.381-2.001-10.928-3.435c-2.285-0.924-4.583-1.894-6.567-3.357c-1.984-1.463-3.653-3.484-4.232-5.881"/>
							<path style="fill:none;stroke:#E1E0EE;stroke-linecap:round;stroke-miterlimit:10;" d="M304.945,247.867
								c2.213,1.556,4.678,2.753,7.27,3.529c4.455,1.335,9.176,1.415,13.827,1.45c-0.182,2.168,0.95,4.371,2.12,6.205
								c0.897,1.406,1.847,2.779,2.848,4.114c1.012,1.349,2.181,2.733,3.803,3.194"/>
							<path style="fill:none;stroke:#E1E0EE;stroke-linecap:round;stroke-miterlimit:10;" d="M339.392,242.58
								c1.218,4.911,3.632,9.52,6.975,13.318c1.253,1.423,2.667,2.757,4.39,3.549"/>
							<path style="fill:none;stroke:#E1E0EE;stroke-linecap:round;stroke-miterlimit:10;" d="M351.581,232.122
								c0.763,2.874,2.261,5.496,3.872,7.996c1.512,2.347,3.138,4.621,4.869,6.812c1.433,1.814,2.975,3.601,4.951,4.802"/>
							<path style="fill:none;stroke:#E1E0EE;stroke-linecap:round;stroke-miterlimit:10;" d="M362.707,222.967
								c0.075,2.652,1.428,5.096,2.962,7.262c4.002,5.649,9.505,10.224,15.789,13.128"/>
							<path style="fill:none;stroke:#E1E0EE;stroke-linecap:round;stroke-miterlimit:10;" d="M373.569,214.337
								c0.926-0.263,1.696-0.891,2.507-1.409c1.829-1.167,3.938-1.801,6.016-2.421c0.895-0.267,1.793-0.535,2.714-0.688
								c1.493-0.248,3.017-0.19,4.529-0.131"/>
						</g>
						<g>
							<path style="fill:#F3F3FF;" d="M295.52,218.421c2.033-13.266,4.93-39.515-1.392-52.532c0,0-25.473,20.252-25.615,55.904
								c0,0,2.36,25.803,17.409,13.655C291.163,231.217,294.499,225.078,295.52,218.421z"/>
							<path style="fill:none;stroke:#E1E0EE;stroke-linecap:round;stroke-miterlimit:10;" d="M293.925,166.154
								c-1.441,16.079-4.712,31.994-9.73,47.339c-2.655,8.118-5.814,16.144-7.057,24.594"/>
							<path style="fill:none;stroke:#E1E0EE;stroke-linecap:round;stroke-miterlimit:10;" d="M284.663,211.929
								c-2.231-9.721-3.645-19.63-4.223-29.588"/>
							<path style="fill:none;stroke:#E1E0EE;stroke-linecap:round;stroke-miterlimit:10;" d="M279.552,226.545
								c-3.816-7.417-6.718-15.303-8.62-23.424"/>
							<path style="fill:none;stroke:#E1E0EE;stroke-linecap:round;stroke-miterlimit:10;" d="M282.157,219.022
								c0.994-0.216,1.891-0.738,2.762-1.263c4.054-2.443,7.976-5.106,11.741-7.975"/>
							<path style="fill:none;stroke:#E1E0EE;stroke-linecap:round;stroke-miterlimit:10;" d="M289.143,195.574
								c0.763-0.308,1.51-0.659,2.214-1.086c2.636-1.601,4.514-4.166,6.321-6.665"/>
						</g>
						<g>
							<path style="fill:#F3F3FF;" d="M199.325,214.913c1.093-7.132,2.65-21.243-0.748-28.241c0,0-13.694,10.887-13.771,30.053
								c0,0,1.269,13.871,9.359,7.341C196.983,221.792,198.777,218.492,199.325,214.913z"/>
							<path style="fill:none;stroke:#E1E0EE;stroke-linecap:round;stroke-miterlimit:10;" d="M198.468,186.814
								c-0.775,8.644-2.533,17.2-5.231,25.449c-1.427,4.364-3.125,8.679-3.794,13.222"/>
							<path style="fill:none;stroke:#E1E0EE;stroke-linecap:round;stroke-miterlimit:10;" d="M193.488,211.423
								c-1.199-5.226-1.96-10.553-2.27-15.906"/>
							<path style="fill:none;stroke:#E1E0EE;stroke-linecap:round;stroke-miterlimit:10;" d="M190.741,219.28
								c-2.051-3.987-3.612-8.227-4.634-12.592"/>
							<path style="fill:none;stroke:#E1E0EE;stroke-linecap:round;stroke-miterlimit:10;" d="M192.141,215.236
								c0.535-0.116,1.017-0.397,1.485-0.679c2.18-1.313,4.288-2.745,6.312-4.287"/>
							<path style="fill:none;stroke:#E1E0EE;stroke-linecap:round;stroke-miterlimit:10;" d="M195.897,202.63
								c0.41-0.165,0.812-0.354,1.19-0.584c1.417-0.861,2.427-2.24,3.398-3.583"/>
						</g>
						<g>
							<path style="fill:#F3F3FF;" d="M129.393,297.289c-10.845,3.058-31.912,9.969-39.661,19.325c0,0,24.331,12.426,51.626,0.142
								c0,0,18.899-10.773,4.383-18.051C140.687,296.17,134.836,295.754,129.393,297.289z"/>
							<path style="fill:none;stroke:#E1E0EE;stroke-linecap:round;stroke-miterlimit:10;" d="M90.005,316.677
								c12.789-4.489,26.088-7.521,39.559-9.02c7.127-0.793,14.358-1.169,21.248-3.156"/>
							<path style="fill:none;stroke:#E1E0EE;stroke-linecap:round;stroke-miterlimit:10;" d="M128.206,307.842
								c-6.653,5.085-13.734,9.61-21.143,13.512"/>
							<path style="fill:none;stroke:#E1E0EE;stroke-linecap:round;stroke-miterlimit:10;" d="M141.153,306.668
								c-4.341,5.494-9.359,10.454-14.904,14.73"/>
							<path style="fill:none;stroke:#E1E0EE;stroke-linecap:round;stroke-miterlimit:10;" d="M134.498,307.292
								c-0.51-0.685-1.221-1.189-1.926-1.672c-3.276-2.249-6.675-4.32-10.176-6.201"/>
							<path style="fill:none;stroke:#E1E0EE;stroke-linecap:round;stroke-miterlimit:10;" d="M114.15,310.104
								c-0.501-0.476-1.029-0.925-1.6-1.314c-2.14-1.458-4.753-2.002-7.291-2.514"/>
						</g>
						<g>
							<path style="fill:#F3F3FF;" d="M359.265,298.916c13.173-5.008,38.654-15.946,47.275-28.458c0,0-31.686-12.792-64.333,5.529
								c0,0-22.353,15.51-3.466,22.972C345.318,301.557,352.654,301.429,359.265,298.916z"/>
							<path style="fill:none;stroke:#E1E0EE;stroke-linecap:round;stroke-miterlimit:10;" d="M406.193,270.409
								c-15.437,7.005-31.67,12.253-48.286,15.609c-8.791,1.776-17.759,3.043-26.122,6.28"/>
							<path style="fill:none;stroke:#E1E0EE;stroke-linecap:round;stroke-miterlimit:10;" d="M359.577,285.637
								c7.727-7.07,16.048-13.49,24.847-19.17"/>
							<path style="fill:none;stroke:#E1E0EE;stroke-linecap:round;stroke-miterlimit:10;" d="M343.578,288.531
								c4.801-7.325,10.505-14.058,16.94-19.998"/>
							<path style="fill:none;stroke:#E1E0EE;stroke-linecap:round;stroke-miterlimit:10;" d="M351.799,287.018
								c0.712,0.797,1.653,1.346,2.584,1.87c4.33,2.44,8.793,4.644,13.362,6.6"/>
							<path style="fill:none;stroke:#E1E0EE;stroke-linecap:round;stroke-miterlimit:10;" d="M376.839,281.265
								c0.676,0.538,1.384,1.039,2.138,1.46c2.827,1.579,6.143,1.968,9.361,2.326"/>
						</g>
						<g>
							<path style="fill:#F3F3FF;" d="M154.214,256.563c-13.661-2.487-26.448-8.638-36.657-18.051
								c-8.853-8.163-16.493-19.271-15.204-32.766c2.887-30.229,51.107-25.249,65.017,26.074l6.011,28.231L154.214,256.563z"/>
							<path style="fill:none;stroke:#E1E0EE;stroke-linecap:round;stroke-miterlimit:10;" d="M106.99,194.498
								c2.614,3.556,5.824,6.624,9.013,9.674c8.63,8.253,17.242,16.524,25.855,24.795c2.117,2.033,4.233,4.065,6.35,6.098
								c1.83,1.757,3.659,3.514,5.486,5.274c6.565,6.326,13.676,12.375,19.407,19.466"/>
							<path style="fill:none;stroke:#E1E0EE;stroke-linecap:round;stroke-miterlimit:10;" d="M122.418,211.047
								c1.185-0.934,3.569-3.824,3.782-5.317c0.879-6.157,1.175-12.643-1.191-18.395"/>
							<path style="fill:none;stroke:#E1E0EE;stroke-linecap:round;stroke-miterlimit:10;" d="M122.418,211.047
								c-5.13,4.379-11.273,7.564-17.808,9.235"/>
							<path style="fill:none;stroke:#E1E0EE;stroke-linecap:round;stroke-miterlimit:10;" d="M114.289,235.322
								c5.354-2.211,10.42-5.119,15.028-8.629c2.066-1.573,4.063-3.293,5.54-5.428c1.487-2.15,2.392-4.639,3.281-7.098
								c1.266-3.502,2.538-7.028,3.152-10.701c0.614-3.673,0.537-7.541-0.84-11.001"/>
							<path style="fill:none;stroke:#E1E0EE;stroke-linecap:round;stroke-miterlimit:10;" d="M124.933,244.663
								c4.349,0.287,8.595-1.208,12.697-2.681c3.082-1.107,6.163-2.214,9.245-3.321c0.738-0.265,1.49-0.538,2.111-1.019
								c0.925-0.718,1.457-1.818,1.931-2.889c4.104-9.282,6.195-19.734,4.124-29.67"/>
							<path style="fill:none;stroke:#E1E0EE;stroke-linecap:round;stroke-miterlimit:10;" d="M149.034,255.928
								c3.538-1.48,7.038-3.053,10.494-4.716c0.7-0.337,1.407-0.683,2.001-1.184c0.813-0.686,1.37-1.627,1.818-2.592
								c1.465-3.16,1.887-6.686,2.291-10.145c0.566-4.846,1.43-6.268,0.06-10.951"/>
						</g>
						<g>
							<path style="fill:#F3F3FF;" d="M158.319,276.327c0,0-55.933,21.036-59.172-11.262
								C95.908,232.768,158.319,276.327,158.319,276.327z"/>
							
								<line style="fill:none;stroke:#E1E0EE;stroke-linecap:round;stroke-miterlimit:10;" x1="106.088" y1="266.19" x2="156.353" y2="275.435"/>
							<path style="fill:none;stroke:#E1E0EE;stroke-linecap:round;stroke-miterlimit:10;" d="M113.177,267.73
								c-1.683,3.884-4.296,7.362-7.558,10.059"/>
							<path style="fill:none;stroke:#E1E0EE;stroke-linecap:round;stroke-miterlimit:10;" d="M119.979,268.705
								c1.697,4.469,0.974,9.777-1.856,13.629"/>
							<path style="fill:none;stroke:#E1E0EE;stroke-linecap:round;stroke-miterlimit:10;" d="M127.955,270.286
								c0.979,1.648,1.623,3.47,2.222,5.292c0.386,1.173,0.758,2.366,0.84,3.598c0.082,1.232-0.151,2.525-0.88,3.521"/>
							<path style="fill:none;stroke:#E1E0EE;stroke-linecap:round;stroke-miterlimit:10;" d="M141.176,281.569
								c-0.121-1.35-0.461-2.68-1.002-3.923c-0.931-2.136-2.428-3.968-3.919-5.758c0.888-0.632,1.365-1.777,1.688-2.818
								c0.248-0.798,0.465-1.606,0.652-2.42c0.189-0.824,0.34-1.719-0.009-2.488"/>
							<path style="fill:none;stroke:#E1E0EE;stroke-linecap:round;stroke-miterlimit:10;" d="M128.01,270.103
								c1.484-2.055,2.467-4.469,2.838-6.977c0.139-0.939,0.192-1.912-0.063-2.827"/>
							<path style="fill:none;stroke:#E1E0EE;stroke-linecap:round;stroke-miterlimit:10;" d="M120.066,268.824
								c0.853-1.222,1.371-2.643,1.806-4.068c0.409-1.338,0.753-2.695,1.03-4.066c0.23-1.135,0.415-2.303,0.235-3.447"/>
							<path style="fill:none;stroke:#E1E0EE;stroke-linecap:round;stroke-miterlimit:10;" d="M112.965,267.53
								c0.99-0.887,1.487-2.195,1.819-3.483c0.866-3.358,0.836-6.943-0.086-10.286c-0.061-0.086-0.225-0.046-0.239,0.059"/>
							<path style="fill:none;stroke:#E1E0EE;stroke-linecap:round;stroke-miterlimit:10;" d="M106.15,266.167
								c-0.4-0.269-0.889-0.36-1.35-0.503c-1.038-0.322-1.963-0.924-2.873-1.518c-0.392-0.256-0.785-0.513-1.141-0.815
								c-0.578-0.491-1.049-1.093-1.515-1.69"/>
						</g>
						<g>
							<path style="fill:#F3F3FF;" d="M223.919,224.408c0,0-27.495-18.687-13.849-30.514
								C223.717,182.068,223.919,224.408,223.919,224.408z"/>
							
								<line style="fill:none;stroke:#E1E0EE;stroke-linecap:round;stroke-miterlimit:10;" x1="211.784" y1="197.411" x2="223.695" y2="223.229"/>
							<path style="fill:none;stroke:#E1E0EE;stroke-linecap:round;stroke-miterlimit:10;" d="M213.356,201.128
								c-2.306,0.48-4.724,0.407-6.997-0.212"/>
							<path style="fill:none;stroke:#E1E0EE;stroke-linecap:round;stroke-miterlimit:10;" d="M215.094,204.533
								c-1.488,2.204-4.133,3.577-6.792,3.525"/>
							<path style="fill:none;stroke:#E1E0EE;stroke-linecap:round;stroke-miterlimit:10;" d="M216.932,208.666
								c-0.436,0.973-1.058,1.85-1.694,2.706c-0.41,0.551-0.833,1.103-1.367,1.536c-0.534,0.432-1.196,0.741-1.883,0.729"/>
							<path style="fill:none;stroke:#E1E0EE;stroke-linecap:round;stroke-miterlimit:10;" d="M216.04,218.295
								c0.575-0.488,1.071-1.069,1.462-1.713c0.673-1.108,1.026-2.376,1.362-3.628c0.572,0.201,1.246,0.051,1.822-0.136
								c0.442-0.143,0.879-0.303,1.309-0.479c0.435-0.178,0.89-0.396,1.128-0.802"/>
							<path style="fill:none;stroke:#E1E0EE;stroke-linecap:round;stroke-miterlimit:10;" d="M217.033,208.632
								c1.41,0.016,2.823-0.311,4.082-0.946c0.472-0.238,0.931-0.526,1.265-0.935"/>
							<path style="fill:none;stroke:#E1E0EE;stroke-linecap:round;stroke-miterlimit:10;" d="M215.067,204.611
								c0.829-0.004,1.641-0.224,2.429-0.483c0.739-0.243,1.467-0.522,2.179-0.835c0.59-0.259,1.18-0.55,1.643-0.998"/>
							<path style="fill:none;stroke:#E1E0EE;stroke-linecap:round;stroke-miterlimit:10;" d="M213.379,200.967
								c0.721,0.166,1.475-0.027,2.167-0.289c1.805-0.683,3.425-1.846,4.649-3.337c0.019-0.055-0.051-0.117-0.104-0.09"/>
							<path style="fill:none;stroke:#E1E0EE;stroke-linecap:round;stroke-miterlimit:10;" d="M211.814,197.431
								c-0.006-0.268-0.121-0.52-0.204-0.775c-0.186-0.575-0.209-1.188-0.231-1.793c-0.009-0.26-0.018-0.521,0.005-0.78
								c0.038-0.42,0.161-0.827,0.283-1.231"/>
						</g>
					</g>
					<g>
						<g>
							<g>
								<g>
									<path style="fill:#F3F3FF;" d="M241.817,217.126c0.029-0.001,0.058-0.014,0.077-0.039
										c3.17-4.093,6.809-10.149,6.142-15.754c-0.014-0.115-0.024-0.201-0.025-0.255c-0.001-0.056-0.047-0.1-0.103-0.098
										c-0.056,0.001-0.1,0.047-0.098,0.103c0.001,0.059,0.012,0.151,0.027,0.275c0.658,5.537-2.955,11.544-6.101,15.607
										c-0.034,0.044-0.026,0.107,0.018,0.141C241.772,217.119,241.795,217.126,241.817,217.126z"/>
								</g>
								<g>
									<path style="fill:#F3F3FF;" d="M246.943,199.234c0.007,0.294,0.349,1.077,0.616,1.646c0.121,0.257,0.489,0.249,0.598-0.014
										c0.24-0.581,0.546-1.378,0.539-1.672c-0.011-0.484-0.413-0.867-0.897-0.856
										C247.315,198.348,246.931,198.75,246.943,199.234z"/>
								</g>
								<g>
									<path style="fill:#F3F3FF;" d="M249.252,200.709c-0.257,0.143-0.789,0.811-1.167,1.313
										c-0.171,0.227,0.009,0.549,0.292,0.522c0.626-0.059,1.474-0.161,1.73-0.305c0.423-0.236,0.574-0.77,0.338-1.193
										C250.209,200.624,249.675,200.473,249.252,200.709z"/>
								</g>
								<g>
									<path style="fill:#F3F3FF;" d="M249.005,206.478c-0.207-0.09-0.861-0.105-1.343-0.103c-0.218,0.001-0.331,0.26-0.183,0.42
										c0.326,0.355,0.782,0.824,0.989,0.915c0.34,0.148,0.736-0.007,0.885-0.347
										C249.501,207.023,249.345,206.627,249.005,206.478z"/>
								</g>
								<g>
									<path style="fill:#F3F3FF;" d="M246.07,205.678c0.202,0.088,0.842,0.103,1.313,0.101c0.213-0.001,0.323-0.254,0.179-0.411
										c-0.319-0.347-0.765-0.806-0.967-0.894c-0.333-0.145-0.72,0.007-0.865,0.339
										C245.585,205.145,245.737,205.533,246.07,205.678z"/>
								</g>
								<g>
									<path style="fill:#F3F3FF;" d="M245.435,208.058c0.202,0.088,0.842,0.103,1.313,0.101c0.213-0.001,0.323-0.254,0.179-0.411
										c-0.319-0.347-0.765-0.806-0.967-0.894c-0.333-0.145-0.72,0.007-0.865,0.339S245.103,207.913,245.435,208.058z"/>
								</g>
								<g>
									<path style="fill:#F3F3FF;" d="M244.05,210.951c0.154,0.158,0.74,0.414,1.177,0.59c0.197,0.08,0.395-0.113,0.321-0.312
										c-0.164-0.442-0.403-1.035-0.556-1.193c-0.253-0.26-0.669-0.266-0.929-0.013
										C243.803,210.275,243.797,210.691,244.05,210.951z"/>
								</g>
								<g>
									<path style="fill:#F3F3FF;" d="M247.905,209.096c-0.125-0.129-0.602-0.336-0.957-0.48
										c-0.161-0.065-0.322,0.092-0.261,0.254c0.133,0.359,0.327,0.842,0.452,0.97c0.206,0.212,0.544,0.216,0.755,0.011
										C248.106,209.645,248.111,209.307,247.905,209.096z"/>
								</g>
								<g>
									<path style="fill:#F3F3FF;" d="M247.08,211.167c-0.125-0.128-0.602-0.336-0.957-0.48c-0.161-0.065-0.322,0.092-0.261,0.254
										c0.133,0.359,0.327,0.842,0.452,0.97c0.206,0.212,0.544,0.216,0.755,0.011C247.281,211.716,247.286,211.378,247.08,211.167
										z"/>
								</g>
								<g>
									<path style="fill:#F3F3FF;" d="M245.822,212.718c-0.175-0.038-0.688,0.052-1.063,0.129
										c-0.17,0.035-0.217,0.254-0.077,0.356c0.309,0.226,0.738,0.521,0.913,0.559c0.288,0.063,0.573-0.12,0.635-0.408
										C246.293,213.065,246.11,212.78,245.822,212.718z"/>
								</g>
								<g>
									<path style="fill:#F3F3FF;" d="M250.007,203.835c-0.271-0.114-1.125-0.123-1.753-0.112
										c-0.284,0.005-0.427,0.344-0.232,0.551c0.431,0.457,1.034,1.062,1.305,1.177c0.446,0.188,0.96-0.021,1.148-0.467
										C250.662,204.537,250.453,204.023,250.007,203.835z"/>
								</g>
								<g>
									<path style="fill:#F3F3FF;" d="M246.004,203.596c0.283,0.08,1.132-0.015,1.754-0.102c0.282-0.039,0.382-0.394,0.163-0.575
										c-0.484-0.401-1.156-0.928-1.439-1.009c-0.466-0.132-0.95,0.138-1.083,0.604
										C245.268,202.979,245.538,203.463,246.004,203.596z"/>
								</g>
							</g>
						</g>
						<g>
							<g>
								<g>
									<g>
										<path style="fill:#C8EDB7;" d="M192.307,251.873c-0.122,0-0.243-0.053-0.327-0.155
											c-13.653-16.811-29.457-41.785-27.212-65.288c0.046-0.484,0.081-0.842,0.081-1.071c0-0.232,0.188-0.421,0.421-0.421
											c0.232,0,0.421,0.188,0.421,0.421c0,0.247-0.036,0.631-0.085,1.151c-2.217,23.22,13.474,47.989,27.028,64.678
											c0.146,0.18,0.119,0.445-0.061,0.592C192.494,251.842,192.4,251.873,192.307,251.873z"/>
									</g>
									<g>
										<path style="fill:#C8EDB7;" d="M169.139,177.546c0,1.23-1.354,4.536-2.416,6.942c-0.48,1.088-2.021,1.088-2.502,0
											c-1.062-2.405-2.416-5.711-2.416-6.942c0-2.025,1.642-3.667,3.667-3.667C167.498,173.879,169.139,175.521,169.139,177.546
											z"/>
									</g>
									<g>
										<path style="fill:#C8EDB7;" d="M159.625,183.94c1.088,0.575,3.379,3.316,5.009,5.379c0.737,0.933,0.017,2.295-1.169,2.212
											c-2.623-0.184-6.178-0.532-7.266-1.107c-1.791-0.946-2.475-3.165-1.529-4.955
											C155.616,183.678,157.834,182.994,159.625,183.94z"/>
									</g>
									<g>
										<path style="fill:#C8EDB7;" d="M161.216,208.043c0.856-0.397,3.592-0.523,5.607-0.561c0.911-0.017,1.409,1.054,0.808,1.74
											c-1.329,1.515-3.191,3.524-4.047,3.921c-1.408,0.654-3.08,0.042-3.734-1.366
											C159.196,210.368,159.808,208.697,161.216,208.043z"/>
									</g>
									<g>
										<path style="fill:#C8EDB7;" d="M173.414,204.41c-0.836,0.388-3.51,0.511-5.48,0.548c-0.891,0.017-1.377-1.031-0.789-1.7
											c1.299-1.481,3.119-3.444,3.956-3.833c1.376-0.639,3.01-0.041,3.649,1.335C175.388,202.137,174.79,203.771,173.414,204.41
											z"/>
									</g>
									<g>
										<path style="fill:#C8EDB7;" d="M176.298,214.302c-0.836,0.388-3.51,0.511-5.48,0.548c-0.891,0.017-1.377-1.031-0.789-1.7
											c1.299-1.481,3.119-3.444,3.956-3.832c1.376-0.639,3.01-0.041,3.649,1.335
											C178.272,212.029,177.674,213.663,176.298,214.302z"/>
									</g>
									<g>
										<path style="fill:#C8EDB7;" d="M182.371,226.268c-0.627,0.676-3.056,1.802-4.865,2.581
											c-0.818,0.353-1.664-0.433-1.374-1.275c0.642-1.863,1.584-4.368,2.211-5.044c1.032-1.112,2.771-1.177,3.883-0.145
											C183.339,223.417,183.404,225.156,182.371,226.268z"/>
									</g>
									<g>
										<path style="fill:#C8EDB7;" d="M166.069,218.881c0.51-0.549,2.485-1.465,3.956-2.099c0.665-0.287,1.353,0.352,1.117,1.037
											c-0.522,1.514-1.288,3.552-1.798,4.102c-0.839,0.904-2.253,0.957-3.157,0.118
											C165.283,221.199,165.23,219.786,166.069,218.881z"/>
									</g>
									<g>
										<path style="fill:#C8EDB7;" d="M169.719,227.463c0.51-0.549,2.485-1.465,3.956-2.099c0.665-0.287,1.353,0.352,1.117,1.037
											c-0.522,1.515-1.288,3.552-1.798,4.102c-0.839,0.904-2.253,0.957-3.157,0.118S168.88,228.367,169.719,227.463z"/>
									</g>
									<g>
										<path style="fill:#C8EDB7;" d="M175.132,233.827c0.729-0.176,2.881,0.151,4.457,0.436
											c0.713,0.129,0.934,1.041,0.358,1.481c-1.272,0.974-3.036,2.249-3.764,2.426c-1.199,0.29-2.407-0.447-2.697-1.646
											C173.195,235.325,173.932,234.117,175.132,233.827z"/>
									</g>
									<g>
										<path style="fill:#C8EDB7;" d="M156.771,197.084c1.123-0.504,4.693-0.623,7.322-0.638c1.189-0.007,1.82,1.398,1.024,2.282
											c-1.759,1.954-4.221,4.543-5.344,5.047c-1.848,0.829-4.018,0.004-4.847-1.844
											C154.098,200.083,154.924,197.913,156.771,197.084z"/>
									</g>
									<g>
										<path style="fill:#C8EDB7;" d="M173.489,195.697c-1.176,0.363-4.734,0.046-7.346-0.258
											c-1.181-0.138-1.636-1.61-0.739-2.39c1.984-1.725,4.743-3.995,5.919-4.358c1.935-0.598,3.988,0.486,4.586,2.42
											C176.507,193.045,175.424,195.098,173.489,195.697z"/>
									</g>
								</g>
							</g>
							<g>
								<g>
									<g>
										<path style="fill:#C8EDB7;" d="M264.985,227.993c-0.052-0.029-0.092-0.08-0.103-0.144
											c-1.856-10.412-2.701-24.82,3.818-34.33c0.134-0.196,0.234-0.34,0.288-0.438c0.055-0.099,0.18-0.135,0.279-0.08
											c0.099,0.055,0.135,0.18,0.08,0.279c-0.058,0.105-0.165,0.261-0.309,0.472c-6.44,9.396-5.595,23.69-3.752,34.026
											c0.02,0.112-0.054,0.218-0.166,0.238C265.072,228.025,265.024,228.015,264.985,227.993z"/>
									</g>
									<g>
										<path style="fill:#C8EDB7;" d="M272.669,190.758c-0.291,0.526-1.651,1.618-2.674,2.394
											c-0.462,0.351-1.121-0.013-1.069-0.592c0.115-1.279,0.319-3.012,0.61-3.537c0.479-0.865,1.569-1.178,2.434-0.699
											C272.835,188.803,273.148,189.893,272.669,190.758z"/>
									</g>
									<g>
										<path style="fill:#C8EDB7;" d="M267.091,191.239c0.329,0.503,0.659,2.216,0.867,3.483
											c0.094,0.573-0.535,0.985-1.022,0.669c-1.077-0.699-2.514-1.689-2.843-2.192c-0.541-0.828-0.309-1.938,0.519-2.479
											C265.44,190.179,266.55,190.411,267.091,191.239z"/>
									</g>
									<g>
										<path style="fill:#C8EDB7;" d="M262.07,201.913c0.46,0.033,1.658,0.626,2.528,1.087c0.394,0.208,0.353,0.784-0.066,0.934
											c-0.927,0.333-2.197,0.751-2.657,0.718c-0.756-0.054-1.326-0.71-1.272-1.467
											C260.657,202.429,261.313,201.859,262.07,201.913z"/>
									</g>
									<g>
										<path style="fill:#C8EDB7;" d="M268.14,203.246c-0.449-0.032-1.621-0.612-2.471-1.062
											c-0.384-0.204-0.345-0.766,0.065-0.913c0.905-0.325,2.147-0.734,2.597-0.702c0.739,0.053,1.296,0.695,1.243,1.434
											C269.521,202.742,268.879,203.299,268.14,203.246z"/>
									</g>
									<g>
										<path style="fill:#C8EDB7;" d="M267.032,208.154c-0.449-0.032-1.621-0.612-2.471-1.062
											c-0.384-0.204-0.344-0.766,0.065-0.913c0.905-0.325,2.147-0.734,2.597-0.702c0.739,0.053,1.296,0.694,1.243,1.434
											C268.413,207.65,267.772,208.207,267.032,208.154z"/>
									</g>
									<g>
										<path style="fill:#C8EDB7;" d="M266.797,214.704c-0.428,0.14-1.732,0.047-2.689-0.048
											c-0.433-0.043-0.609-0.579-0.285-0.87c0.715-0.644,1.71-1.492,2.138-1.632c0.704-0.231,1.462,0.152,1.693,0.857
											C267.884,213.715,267.501,214.473,266.797,214.704z"/>
									</g>
									<g>
										<path style="fill:#C8EDB7;" d="M261.579,207.691c0.348-0.114,1.408-0.038,2.187,0.039c0.352,0.035,0.495,0.47,0.232,0.707
											c-0.581,0.523-1.391,1.213-1.738,1.327c-0.573,0.188-1.189-0.124-1.377-0.697
											C260.695,208.496,261.007,207.879,261.579,207.691z"/>
									</g>
									<g>
										<path style="fill:#C8EDB7;" d="M261.109,212.221c0.348-0.114,1.408-0.038,2.187,0.039c0.352,0.035,0.495,0.47,0.232,0.707
											c-0.581,0.523-1.391,1.213-1.738,1.327c-0.573,0.188-1.189-0.124-1.377-0.697
											C260.224,213.026,260.536,212.409,261.109,212.221z"/>
									</g>
									<g>
										<path style="fill:#C8EDB7;" d="M261.915,216.221c0.353,0.097,1.195,0.746,1.801,1.24c0.274,0.224,0.153,0.666-0.197,0.718
											c-0.774,0.115-1.829,0.243-2.182,0.146c-0.581-0.16-0.923-0.76-0.763-1.341
											C260.734,216.402,261.335,216.061,261.915,216.221z"/>
									</g>
									<g>
										<path style="fill:#C8EDB7;" d="M262.763,196.179c0.599,0.05,2.152,0.844,3.279,1.459c0.51,0.278,0.447,1.028-0.102,1.217
											c-1.214,0.419-2.878,0.942-3.477,0.892c-0.985-0.083-1.717-0.949-1.635-1.934
											C260.912,196.829,261.777,196.097,262.763,196.179z"/>
									</g>
									<g>
										<path style="fill:#C8EDB7;" d="M270.233,199.541c-0.588-0.123-2.034-1.1-3.077-1.848c-0.472-0.338-0.318-1.075,0.25-1.196
											c1.256-0.268,2.971-0.585,3.56-0.462c0.968,0.202,1.589,1.151,1.387,2.119
											C272.15,199.122,271.201,199.743,270.233,199.541z"/>
									</g>
								</g>
							</g>
							<g>
								<g>
									<g>
										<path style="fill:#C8EDB7;" d="M238.276,217.249c-0.026-0.014-0.045-0.039-0.05-0.07
											c-0.909-5.097-1.322-12.15,1.869-16.805c0.066-0.096,0.114-0.167,0.141-0.215c0.027-0.049,0.088-0.066,0.137-0.039
											s0.066,0.088,0.039,0.137c-0.029,0.052-0.081,0.128-0.151,0.231c-3.152,4.6-2.739,11.597-1.837,16.657
											c0.01,0.055-0.027,0.107-0.081,0.117C238.319,217.265,238.295,217.26,238.276,217.249z"/>
									</g>
									<g>
										<path style="fill:#C8EDB7;" d="M242.038,199.022c-0.143,0.257-0.809,0.792-1.309,1.172
											c-0.226,0.172-0.549-0.007-0.523-0.29c0.056-0.626,0.156-1.474,0.299-1.731c0.234-0.424,0.768-0.577,1.191-0.342
											C242.119,198.065,242.272,198.598,242.038,199.022z"/>
									</g>
									<g>
										<path style="fill:#C8EDB7;" d="M239.307,199.257c0.161,0.246,0.323,1.085,0.425,1.705c0.046,0.281-0.262,0.482-0.5,0.327
											c-0.527-0.342-1.231-0.827-1.392-1.073c-0.265-0.405-0.151-0.949,0.254-1.213
											C238.499,198.738,239.042,198.852,239.307,199.257z"/>
									</g>
									<g>
										<path style="fill:#C8EDB7;" d="M236.849,204.482c0.225,0.016,0.812,0.306,1.238,0.532
											c0.193,0.102,0.173,0.384-0.032,0.457c-0.454,0.163-1.076,0.367-1.301,0.351c-0.37-0.026-0.649-0.348-0.623-0.718
											C236.157,204.735,236.479,204.456,236.849,204.482z"/>
									</g>
									<g>
										<path style="fill:#C8EDB7;" d="M239.821,205.135c-0.22-0.016-0.793-0.3-1.21-0.52c-0.188-0.1-0.169-0.375,0.032-0.447
											c0.443-0.159,1.051-0.359,1.271-0.343c0.362,0.026,0.634,0.34,0.609,0.702
											C240.497,204.888,240.183,205.161,239.821,205.135z"/>
									</g>
									<g>
										<path style="fill:#C8EDB7;" d="M239.278,207.538c-0.22-0.016-0.793-0.299-1.21-0.52c-0.188-0.1-0.169-0.375,0.032-0.447
											c0.443-0.159,1.051-0.359,1.271-0.344c0.362,0.026,0.634,0.34,0.609,0.702
											C239.954,207.291,239.64,207.564,239.278,207.538z"/>
									</g>
									<g>
										<path style="fill:#C8EDB7;" d="M239.163,210.744c-0.209,0.069-0.848,0.023-1.316-0.023
											c-0.212-0.021-0.298-0.283-0.14-0.426c0.35-0.315,0.837-0.73,1.047-0.799c0.345-0.113,0.716,0.075,0.829,0.419
											S239.508,210.631,239.163,210.744z"/>
									</g>
									<g>
										<path style="fill:#C8EDB7;" d="M236.609,207.311c0.17-0.056,0.689-0.019,1.07,0.019c0.172,0.017,0.242,0.23,0.114,0.346
											c-0.285,0.256-0.681,0.594-0.851,0.65c-0.28,0.092-0.582-0.061-0.674-0.341
											C236.176,207.705,236.329,207.403,236.609,207.311z"/>
									</g>
									<g>
										<path style="fill:#C8EDB7;" d="M236.379,209.529c0.17-0.056,0.689-0.019,1.07,0.019c0.172,0.017,0.242,0.23,0.114,0.346
											c-0.285,0.256-0.681,0.594-0.851,0.65c-0.28,0.092-0.582-0.061-0.674-0.341
											C235.946,209.922,236.098,209.62,236.379,209.529z"/>
									</g>
									<g>
										<path style="fill:#C8EDB7;" d="M236.774,211.486c0.173,0.048,0.585,0.365,0.882,0.607
											c0.134,0.109,0.075,0.326-0.096,0.351c-0.379,0.056-0.895,0.119-1.068,0.071c-0.284-0.078-0.452-0.372-0.373-0.657
											C236.195,211.575,236.489,211.408,236.774,211.486z"/>
									</g>
									<g>
										<path style="fill:#C8EDB7;" d="M237.188,201.676c0.293,0.025,1.054,0.413,1.605,0.714c0.249,0.136,0.219,0.503-0.05,0.596
											c-0.594,0.205-1.409,0.461-1.702,0.437c-0.482-0.041-0.841-0.464-0.8-0.947
											C236.282,201.993,236.706,201.635,237.188,201.676z"/>
									</g>
									<g>
										<path style="fill:#C8EDB7;" d="M240.845,203.322c-0.288-0.06-0.995-0.538-1.506-0.905
											c-0.231-0.166-0.156-0.526,0.122-0.585c0.615-0.131,1.454-0.286,1.742-0.226c0.474,0.099,0.778,0.563,0.679,1.037
											C241.784,203.117,241.319,203.42,240.845,203.322z"/>
									</g>
								</g>
							</g>
							<g>
								<g>
									<g>
										<path style="fill:#7A7AE2;" d="M337.957,301.052c0.003-0.061,0.032-0.121,0.085-0.16
											c8.742-6.46,21.626-13.812,33.359-12.148c0.242,0.034,0.42,0.06,0.535,0.065c0.117,0.005,0.207,0.104,0.201,0.221
											c-0.005,0.116-0.104,0.207-0.22,0.201c-0.124-0.006-0.316-0.033-0.575-0.069c-11.592-1.644-24.37,5.656-33.049,12.07
											c-0.094,0.069-0.226,0.049-0.295-0.044C337.968,301.146,337.955,301.098,337.957,301.052z"/>
									</g>
									<g>
										<path style="fill:#7A7AE2;" d="M375.755,291.138c-0.617-0.028-2.243-0.783-3.425-1.37
											c-0.534-0.266-0.499-1.038,0.057-1.254c1.23-0.478,2.919-1.081,3.536-1.052c1.015,0.046,1.801,0.907,1.754,1.922
											C377.632,290.399,376.771,291.185,375.755,291.138z"/>
									</g>
									<g>
										<path style="fill:#7A7AE2;" d="M372.767,286.221c-0.313,0.532-1.74,1.618-2.812,2.388
											c-0.485,0.348-1.151-0.044-1.082-0.637c0.152-1.311,0.408-3.086,0.721-3.618c0.515-0.876,1.644-1.169,2.52-0.653
											C372.991,284.217,373.283,285.345,372.767,286.221z"/>
									</g>
									<g>
										<path style="fill:#7A7AE2;" d="M360.646,286.467c0.18,0.438,0.18,1.813,0.153,2.824c-0.012,0.457-0.561,0.682-0.891,0.365
											c-0.729-0.701-1.694-1.681-1.873-2.119c-0.296-0.721,0.049-1.545,0.771-1.841
											C359.526,285.401,360.35,285.746,360.646,286.467z"/>
									</g>
									<g>
										<path style="fill:#7A7AE2;" d="M362.188,292.666c-0.176-0.428-0.176-1.772-0.149-2.76
											c0.012-0.447,0.548-0.667,0.871-0.357c0.713,0.685,1.655,1.643,1.831,2.071c0.289,0.705-0.048,1.51-0.753,1.799
											C363.282,293.708,362.477,293.371,362.188,292.666z"/>
									</g>
									<g>
										<path style="fill:#7A7AE2;" d="M357.162,293.885c-0.175-0.428-0.176-1.772-0.149-2.76
											c0.012-0.447,0.548-0.667,0.871-0.357c0.713,0.685,1.655,1.643,1.831,2.071c0.289,0.705-0.048,1.51-0.753,1.799
											C358.256,294.927,357.451,294.59,357.162,293.885z"/>
									</g>
									<g>
										<path style="fill:#7A7AE2;" d="M351.023,296.656c-0.324-0.33-0.833-1.573-1.183-2.499
											c-0.158-0.418,0.255-0.825,0.671-0.66c0.919,0.365,2.154,0.894,2.479,1.224c0.534,0.543,0.527,1.416-0.016,1.95
											C352.43,297.207,351.557,297.199,351.023,296.656z"/>
									</g>
									<g>
										<path style="fill:#7A7AE2;" d="M355.1,288.652c0.264,0.268,0.678,1.279,0.962,2.032c0.128,0.34-0.207,0.671-0.545,0.536
											c-0.747-0.297-1.751-0.727-2.015-0.996c-0.434-0.442-0.428-1.152,0.013-1.586
											C353.956,288.204,354.666,288.21,355.1,288.652z"/>
									</g>
									<g>
										<path style="fill:#7A7AE2;" d="M350.714,290.285c0.264,0.268,0.678,1.279,0.962,2.032c0.129,0.34-0.207,0.671-0.546,0.536
											c-0.747-0.297-1.751-0.727-2.015-0.996c-0.434-0.442-0.428-1.151,0.013-1.586
											C349.569,289.838,350.279,289.844,350.714,290.285z"/>
									</g>
									<g>
										<path style="fill:#7A7AE2;" d="M347.399,292.853c0.072,0.369-0.142,1.441-0.321,2.225
											c-0.081,0.355-0.543,0.444-0.751,0.146c-0.459-0.66-1.058-1.574-1.13-1.943c-0.118-0.608,0.279-1.197,0.887-1.315
											C346.692,291.848,347.281,292.245,347.399,292.853z"/>
									</g>
									<g>
										<path style="fill:#7A7AE2;" d="M366.243,284.489c0.227,0.574,0.205,2.367,0.152,3.686
											c-0.024,0.596-0.743,0.88-1.168,0.461c-0.939-0.927-2.181-2.221-2.408-2.795c-0.374-0.945,0.09-2.014,1.035-2.388
											C364.8,283.08,365.869,283.544,366.243,284.489z"/>
									</g>
									<g>
										<path style="fill:#7A7AE2;" d="M366.555,292.903c-0.155-0.598,0.085-2.375,0.298-3.677
											c0.096-0.589,0.845-0.783,1.215-0.316c0.82,1.034,1.894,2.47,2.05,3.067c0.256,0.984-0.335,1.988-1.319,2.244
											C367.815,294.477,366.811,293.887,366.555,292.903z"/>
									</g>
								</g>
							</g>
							<g>
								<g>
									<g>
										<path style="fill:#7A7AE2;" d="M153.922,289.803c-0.028-0.055-0.079-0.097-0.143-0.112
											c-10.614-2.345-25.375-3.819-35.416,2.475c-0.207,0.129-0.359,0.226-0.462,0.277c-0.104,0.052-0.146,0.179-0.094,0.283
											c0.052,0.104,0.179,0.146,0.283,0.094c0.111-0.056,0.275-0.158,0.497-0.297c9.92-6.218,24.563-4.748,35.101-2.42
											c0.114,0.025,0.227-0.047,0.252-0.161C153.951,289.894,153.943,289.845,153.922,289.803z"/>
									</g>
									<g>
										<path style="fill:#7A7AE2;" d="M115.36,296.126c0.552-0.277,1.731-1.628,2.571-2.646c0.38-0.46,0.033-1.151-0.563-1.122
											c-1.318,0.064-3.106,0.201-3.658,0.477c-0.909,0.456-1.276,1.561-0.821,2.47
											C113.345,296.214,114.451,296.581,115.36,296.126z"/>
									</g>
									<g>
										<path style="fill:#7A7AE2;" d="M116.089,290.418c0.503,0.359,2.248,0.77,3.54,1.038c0.584,0.121,1.034-0.508,0.729-1.022
											c-0.673-1.135-1.628-2.653-2.131-3.012c-0.827-0.591-1.977-0.399-2.567,0.428
											C115.07,288.678,115.262,289.827,116.089,290.418z"/>
									</g>
									<g>
										<path style="fill:#7A7AE2;" d="M127.262,285.711c0.014,0.473,0.573,1.729,1.009,2.642c0.197,0.413,0.79,0.395,0.962-0.029
											c0.381-0.937,0.863-2.225,0.849-2.698c-0.023-0.779-0.674-1.391-1.453-1.368
											C127.851,284.281,127.239,284.932,127.262,285.711z"/>
									</g>
									<g>
										<path style="fill:#7A7AE2;" d="M128.375,292.001c-0.014-0.462-0.56-1.69-0.987-2.582c-0.193-0.403-0.772-0.386-0.94,0.028
											c-0.372,0.916-0.844,2.174-0.83,2.637c0.023,0.761,0.659,1.36,1.42,1.337C127.8,293.398,128.398,292.762,128.375,292.001z
											"/>
									</g>
									<g>
										<path style="fill:#7A7AE2;" d="M133.463,291.07c-0.014-0.463-0.56-1.69-0.987-2.582c-0.193-0.404-0.772-0.386-0.94,0.028
											c-0.372,0.916-0.844,2.174-0.83,2.637c0.023,0.761,0.659,1.36,1.42,1.337C132.887,292.467,133.485,291.832,133.463,291.07
											z"/>
									</g>
									<g>
										<path style="fill:#7A7AE2;" d="M140.198,291.104c0.162-0.434,0.121-1.777,0.064-2.764c-0.026-0.447-0.569-0.65-0.881-0.33
											c-0.691,0.707-1.604,1.693-1.766,2.127c-0.267,0.713,0.095,1.508,0.808,1.775
											C139.137,292.179,139.931,291.817,140.198,291.104z"/>
									</g>
									<g>
										<path style="fill:#7A7AE2;" d="M133.217,285.451c-0.132,0.352-0.098,1.444-0.052,2.247
											c0.021,0.363,0.462,0.528,0.717,0.268c0.562-0.575,1.304-1.377,1.436-1.729c0.217-0.58-0.077-1.226-0.657-1.443
											C134.08,284.576,133.434,284.871,133.217,285.451z"/>
									</g>
									<g>
										<path style="fill:#7A7AE2;" d="M137.888,285.158c-0.132,0.352-0.098,1.444-0.052,2.247
											c0.021,0.363,0.462,0.528,0.717,0.268c0.562-0.575,1.304-1.377,1.436-1.729c0.217-0.58-0.077-1.226-0.657-1.443
											C138.752,284.284,138.106,284.578,137.888,285.158z"/>
									</g>
									<g>
										<path style="fill:#7A7AE2;" d="M141.962,286.155c0.085,0.367,0.716,1.258,1.198,1.902
											c0.218,0.291,0.677,0.185,0.745-0.172c0.151-0.79,0.326-1.868,0.242-2.235c-0.139-0.603-0.742-0.979-1.345-0.84
											C142.198,284.95,141.822,285.552,141.962,286.155z"/>
									</g>
									<g>
										<path style="fill:#7A7AE2;" d="M121.345,286.181c0.026,0.617,0.776,2.246,1.361,3.429
											c0.264,0.535,1.037,0.502,1.254-0.054c0.481-1.229,1.089-2.916,1.063-3.533c-0.044-1.015-0.902-1.803-1.917-1.76
											C122.089,284.307,121.301,285.166,121.345,286.181z"/>
									</g>
									<g>
										<path style="fill:#7A7AE2;" d="M124.483,293.995c-0.101-0.609-1.044-2.135-1.768-3.238
											c-0.327-0.499-1.09-0.372-1.238,0.206c-0.328,1.278-0.726,3.027-0.624,3.636c0.167,1.003,1.115,1.68,2.118,1.513
											C123.972,295.945,124.649,294.997,124.483,293.995z"/>
									</g>
								</g>
							</g>
							<g>
								<g>
									<g>
										<path style="fill:#7A7AE2;" d="M282.801,242.633c0.08,0.002,0.16-0.03,0.217-0.095
											c9.243-10.726,20.047-26.744,19.029-42.146c-0.021-0.317-0.037-0.551-0.033-0.702c0.004-0.152-0.115-0.278-0.267-0.283
											c-0.152-0.004-0.278,0.115-0.283,0.267c-0.005,0.161,0.011,0.413,0.034,0.754c1.006,15.216-9.721,31.103-18.897,41.751
											c-0.099,0.115-0.086,0.289,0.029,0.388C282.679,242.609,282.74,242.631,282.801,242.633z"/>
									</g>
									<g>
										<path style="fill:#7A7AE2;" d="M299.359,194.502c-0.023,0.804,0.798,2.99,1.446,4.582c0.293,0.72,1.3,0.749,1.635,0.048
											c0.74-1.551,1.688-3.686,1.711-4.49c0.039-1.323-1.003-2.428-2.326-2.466
											C300.501,192.137,299.397,193.179,299.359,194.502z"/>
									</g>
									<g>
										<path style="fill:#7A7AE2;" d="M305.454,198.862c-0.722,0.355-2.271,2.103-3.376,3.42
											c-0.499,0.596-0.055,1.499,0.722,1.468c1.717-0.07,4.048-0.23,4.77-0.585c1.188-0.584,1.678-2.021,1.094-3.209
											C308.079,198.768,306.642,198.278,305.454,198.862z"/>
									</g>
									<g>
										<path style="fill:#7A7AE2;" d="M303.955,214.583c-0.552-0.276-2.337-0.41-3.654-0.474
											c-0.595-0.029-0.941,0.662-0.561,1.121c0.84,1.016,2.018,2.364,2.57,2.64c0.908,0.454,2.012,0.086,2.466-0.822
											C305.23,216.141,304.862,215.037,303.955,214.583z"/>
									</g>
									<g>
										<path style="fill:#7A7AE2;" d="M296.053,211.976c0.539,0.27,2.284,0.401,3.571,0.463c0.582,0.028,0.92-0.647,0.548-1.096
											c-0.821-0.993-1.973-2.31-2.512-2.58c-0.887-0.444-1.966-0.084-2.41,0.803
											C294.806,210.453,295.166,211.532,296.053,211.976z"/>
									</g>
									<g>
										<path style="fill:#7A7AE2;" d="M293.98,218.385c0.539,0.27,2.284,0.401,3.571,0.463c0.582,0.028,0.92-0.647,0.548-1.096
											c-0.821-0.993-1.973-2.31-2.512-2.58c-0.887-0.444-1.966-0.084-2.41,0.803
											C292.733,216.862,293.092,217.941,293.98,218.385z"/>
									</g>
									<g>
										<path style="fill:#7A7AE2;" d="M289.782,226.09c0.397,0.454,1.963,1.236,3.13,1.78c0.528,0.246,1.096-0.251,0.922-0.807
											c-0.384-1.229-0.952-2.885-1.349-3.339c-0.653-0.747-1.788-0.822-2.535-0.169
											C289.204,224.208,289.129,225.343,289.782,226.09z"/>
									</g>
									<g>
										<path style="fill:#7A7AE2;" d="M300.576,221.573c-0.323-0.369-1.596-1.005-2.545-1.447c-0.429-0.2-0.891,0.204-0.75,0.656
											c0.313,1,0.774,2.346,1.097,2.715c0.531,0.607,1.454,0.669,2.061,0.137C301.046,223.103,301.108,222.18,300.576,221.573z"
											/>
									</g>
									<g>
										<path style="fill:#7A7AE2;" d="M298.027,227.112c-0.323-0.369-1.596-1.005-2.545-1.447c-0.429-0.2-0.891,0.204-0.75,0.656
											c0.313,1,0.774,2.346,1.097,2.715c0.531,0.607,1.454,0.669,2.061,0.137C298.497,228.641,298.559,227.719,298.027,227.112z
											"/>
									</g>
									<g>
										<path style="fill:#7A7AE2;" d="M294.369,231.167c-0.473-0.129-1.885,0.044-2.921,0.2c-0.468,0.07-0.63,0.662-0.263,0.961
											c0.813,0.661,1.941,1.528,2.414,1.657c0.778,0.213,1.581-0.246,1.794-1.024
											C295.606,232.183,295.147,231.38,294.369,231.167z"/>
									</g>
									<g>
										<path style="fill:#7A7AE2;" d="M307.068,207.506c-0.724-0.351-3.055-0.496-4.773-0.557
											c-0.777-0.027-1.216,0.879-0.713,1.472c1.112,1.311,2.672,3.049,3.396,3.4c1.192,0.577,2.625,0.079,3.203-1.112
											C308.758,209.517,308.26,208.083,307.068,207.506z"/>
									</g>
									<g>
										<path style="fill:#7A7AE2;" d="M296.17,206.281c0.761,0.26,3.093,0.121,4.805-0.029c0.774-0.068,1.1-1.021,0.528-1.548
											c-1.264-1.165-3.023-2.701-3.785-2.961c-1.253-0.428-2.615,0.241-3.043,1.494
											C294.248,204.49,294.917,205.853,296.17,206.281z"/>
									</g>
								</g>
							</g>
						</g>
					</g>
				</g>
				<g>
					<circle style="fill:#D9DAF9;" cx="237.507" cy="318.771" r="105.895"/>
					<path style="fill:#B7B7F9;" d="M197.248,221.876c5.35-2.179-0.273,12.476,4.257,16.06c2.907,2.299,6.897,2.627,10.597,2.41
						c6.339-0.372,12.597-2.078,18.249-4.974c1.677-0.859,3.355-1.84,5.225-2.067c1.87-0.227,4.022,0.54,4.734,2.284
						c0.342,0.838,0.311,1.774,0.275,2.678c-0.163,4.093-0.326,8.185-0.489,12.278c-0.057,1.444-0.124,2.928-0.711,4.248
						c-2.102,4.727-8.922,4.524-13.13,7.532c-4.788,3.422-5.421,10.396-9.355,14.772c-1.935,2.153-4.554,3.546-6.824,5.341
						c-9.136,7.227-11.454,21.703-5.029,31.42c3.44,5.204,8.768,8.807,13.956,12.271c2.322,1.551,4.715,3.133,7.443,3.728
						c7.509,1.64,14.729-4.542,22.409-4.222c3.96,0.165,7.709,2.064,11.673,2.121c4.434,0.064,8.795-2.184,13.161-1.405
						c4.898,0.874,8.388,5.362,10.171,10.008c4.837,12.604-0.6,28.309-12.196,35.224c-6.967,4.154-16.482,6.227-19.235,13.857
						c-0.506,1.404-0.727,2.909-1.36,4.26c-1.867,3.984-6.775,5.673-9.126,9.391c-2.359,3.731-1.616,8.641-0.018,12.756
						c1.599,4.115,3.974,7.981,4.757,12.325c-2.288,1.077-5.107,0.278-7.072-1.315c-1.964-1.593-3.253-3.851-4.484-6.06
						c-5.943-10.664-11.782-22.918-8.325-34.626c0.353-1.195,0.805-2.411,0.669-3.649c-0.482-4.373-6.771-4.757-10.083-7.653
						c-3.128-2.735-3.214-7.751-1.478-11.525c1.737-3.775,4.878-6.676,7.699-9.727c2.82-3.051,5.49-6.597,5.874-10.734
						c-7.368-2.774-14.335-6.61-20.618-11.353c-2.625-1.982-5.202-4.16-8.309-5.24c-4.355-1.513-9.133-0.672-13.733-0.991
						c-12.266-0.849-22.504-9.93-29.377-20.125c-6.382-9.465-10.749-20.282-12.729-31.524
						C144.718,269.649,156.659,238.405,197.248,221.876z"/>
					<path style="fill:#B7B7F9;" d="M317.248,250.087c3.419,3.904-10.146,1.745-15.325,2.07c-5.179,0.325-10.887,1.807-13.608,6.226
						c-1.022,1.66-1.518,3.59-2.431,5.312c-2.276,4.294-6.8,6.802-10.493,9.961s-6.847,8.179-4.991,12.671
						c-1.698,1.233-4.263,0.228-5.416-1.525c-1.153-1.753-1.278-3.965-1.367-6.061c-0.164-3.854-0.325-7.758,0.483-11.53
						c0.684-3.194,2.056-6.264,2.202-9.528c0.192-4.314-1.778-8.443-2.085-12.751c-0.361-5.076,1.599-10.2,0.652-15.2
						c-1.473-7.769-9.194-12.48-16.165-16.212C248.702,213.519,286.82,215.338,317.248,250.087z"/>
					<path style="fill:#B7B7F9;" d="M299.326,404.615c-8.573,6.945-7.527-21.546-2.346-31.287c1.753-3.295,4.112-6.22,6.283-9.256
						c4.804-6.715,8.736-14.053,11.664-21.772c2.319-6.111,3.84-13.522-0.064-18.764c-2.381-3.196-6.257-4.816-9.674-6.867
						s-6.779-5.198-6.791-9.184c-0.017-5.803,6.961-9.768,7.089-15.57c0.043-1.932-0.708-3.809-0.722-5.741
						c-0.042-5.858,6.166-9.483,11.478-11.95c5.313-2.468,11.434-6.415,10.977-12.255
						C327.221,261.968,378.795,340.238,299.326,404.615z"/>
				</g>
			</g>
		</g>
		<g>
			<g>
				<path style="fill:#302F3D;" d="M219.574,106.517c0,0-18.262,15.689-26.044,0.509c-7.782-15.18-14.298,7.504-19.246-1.007
					c-4.949-8.51-0.153-24.436,13.901-23.352c14.053,1.084,17.211-10.605,25.548-7.989
					C222.069,77.295,238.984,94.341,219.574,106.517z"/>
				<polygon style="fill:#302F3D;" points="234.457,176.331 231.466,177.142 232.706,184.72 235.817,178.453 				"/>
				<path style="fill:#7A7AE2;" d="M246.257,138.888c-1.629-2.2-4.356-3.324-7.049-2.837c-3.578,0.646-7.971,2.662-8.535,8.608
					c-0.969,10.224,15.463,19.716,15.463,19.716l-12.31,11.062l2.243,3.937c0,0,22.288-6.031,23.719-13.851
					C260.888,159.509,250.92,145.185,246.257,138.888z"/>
				<polyline style="fill:#FFBCBC;stroke:#F4B0B0;stroke-width:0.5;stroke-miterlimit:10;" points="227.015,106.315 227.745,108.22 
					221.883,110.362 219.11,102.866 				"/>
				<path style="fill:#FFBCBC;stroke:#F4B0B0;stroke-width:0.5;stroke-miterlimit:10;" d="M219.219,103.166
					c1.068,2.922,4.302,4.426,7.224,3.358c2.922-1.068,4.426-4.302,3.358-7.224c-1.068-2.922-4.302-4.426-7.224-3.358
					C219.655,97.009,218.151,100.244,219.219,103.166z"/>
				<path style="fill:#FFBCBC;" d="M215.559,152.605c0.55-0.437-3.03-1.821-3.03-1.821c-7.216-19.379,7.546-26.08,7.546-26.08
					l-7.832-6.11c0,0-3.31-0.798-7.611,11.18c-4.093,11.4,4.122,22.043,4.926,23.046c0.081,0.221,1.318,3.461,5.161,5.84
					c3.98,2.463-0.484-5.869-0.484-5.869S215.009,153.042,215.559,152.605z"/>
				<path style="fill:#FFBCBC;" d="M252.83,75.204l-0.007,0.012c-0.018-0.022-2.013-2.532-6.082-3.452
					c-4.087-0.925,2.12,4.827,2.12,4.827s-0.728,0.013-1.067,0.543c-0.338,0.53,3.395,0.912,3.395,0.912s1.12,0.489,4.563,10.806
					c2.586,7.748-7.292,13.645-7.292,13.645l4.025,8.749c2.461-1.734,5.015-4.325,7.484-8.139
					C270.425,86.955,252.83,75.204,252.83,75.204z"/>
				<path style="fill:#302F3D;" d="M253.182,111.776l-4.875-9.583l-8.701,3.931c-3.33,1.374-5.211,1.5-5.211,1.5l0.001,0
					c-3.972-0.299-9.076,0.677-12.523,2.259l0-0.001c0,0-0.127,0.058-0.341,0.165c-0.41,0.2-0.793,0.408-1.145,0.625
					c-1.528,0.896-3.976,2.566-6.089,5.077l0,0l-3.867,3.209l6.157,9.588l5.133-3.641c3.919,8.913,9.7,19.074,9.7,19.074
					l12.559-5.079c3.456-10.656,2.42-17.802,0.257-22.636L253.182,111.776z"/>
				<polygon style="fill:#302F3D;" points="212.815,164.105 210.116,162.583 205.68,168.851 212.295,166.571 				"/>
				<path style="fill:#8C8CEE;" d="M247.502,145.718c0.384-2.71-0.77-5.425-3.03-6.969c-3.002-2.051-7.546-3.699-12.121,0.141
					c-7.866,6.602-2.825,24.897-2.825,24.897l-16.533-0.761l-1.166,4.379c0,0,20.109,11.349,26.616,6.783
					C243.449,170.675,246.404,153.476,247.502,145.718z"/>
				<path style="fill:#302F3D;" d="M219.062,106.836c0.169,0.064,7.431-6.6,5.51-14.267c-1.921-7.668-10.349,8.196-8.821,10.836
					C217.278,106.046,219.062,106.836,219.062,106.836z"/>
			</g>
			<g>
				<circle style="fill:#C8EDB7;" cx="249.868" cy="59.638" r="16.715"/>
				<g>
					<path style="fill:#FFFFFF;" d="M243.574,52.857l1.861,1.235c0.203,0.135,0.473,0.108,0.645-0.065l2.755-2.754
						c0.2-0.2,0.524-0.2,0.724,0l2.656,2.656c0.248,0.248,0.179,0.666-0.135,0.821l-0.238,0.118c-0.426,0.21-0.361,0.837,0.1,0.955
						l4.908,1.257c0.284,0.073,0.571-0.107,0.629-0.395l0.781-3.865c0.085-0.423-0.358-0.755-0.74-0.555l-1.294,0.68
						c-0.206,0.108-0.459,0.064-0.616-0.108l-3.085-3.37c-1.691-1.847-4.585-1.902-6.344-0.119l-2.687,2.723
						C243.266,52.3,243.306,52.679,243.574,52.857z"/>
					<path style="fill:#FFFFFF;" d="M258.762,58.169l-1.916,1.148c-0.209,0.125-0.301,0.38-0.22,0.61l1.299,3.672
						c0.094,0.267-0.045,0.559-0.312,0.653l-3.541,1.253c-0.331,0.117-0.678-0.126-0.683-0.476l-0.003-0.266
						c-0.006-0.475-0.6-0.686-0.905-0.322l-3.249,3.888c-0.188,0.225-0.149,0.561,0.085,0.737l3.152,2.37
						c0.345,0.259,0.836,0.002,0.819-0.429l-0.056-1.461c-0.009-0.232,0.14-0.442,0.362-0.509l4.371-1.332
						c2.396-0.73,3.691-3.318,2.84-5.673l-1.3-3.598C259.397,58.131,259.038,58.003,258.762,58.169z"/>
					<path style="fill:#FFFFFF;" d="M246.682,68.892l0.177-2.226c0.019-0.243-0.135-0.466-0.369-0.533l-3.745-1.072
						c-0.272-0.078-0.429-0.361-0.351-0.633l1.034-3.611c0.097-0.337,0.496-0.48,0.784-0.28l0.219,0.151
						c0.391,0.271,0.907-0.091,0.787-0.55l-1.282-4.902c-0.074-0.284-0.371-0.447-0.65-0.359l-3.759,1.192
						c-0.411,0.13-0.487,0.68-0.126,0.916l1.223,0.802c0.194,0.128,0.279,0.37,0.205,0.591l-1.451,4.333
						c-0.795,2.375,0.561,4.931,2.973,5.605l3.685,1.028C246.344,69.431,246.657,69.213,246.682,68.892z"/>
				</g>
			</g>
		</g>
		<g>
			<path style="fill:#FFBCBC;" d="M173.697,371.176c-1.396,1.715-2.429,4.178-2.429,4.178s-0.293-0.934-1.105-1.169
				c-0.76-0.22,0.187,3.685,0.311,4.187c-0.471,0.964-2.871,5.34-9.621,10.136c-7.649,5.435-14.406-3.216-14.406-3.216l-8.934,5.775
				c2.334,2.552,5.659,5.085,10.365,7.343c18.432,8.844,25.743-14.959,26.737-18.581c0.216-0.335,0.883-1.447,1.409-3.179
				C176.484,375.136,174.221,370.532,173.697,371.176z"/>
			<polyline style="fill:#FFBCBC;stroke:#F4B0B0;stroke-width:0.5;stroke-miterlimit:10;" points="121.701,370.683 122.063,372.998 
				114.962,373.993 113.651,364.906 			"/>
			<path style="fill:#FFBCBC;stroke:#F4B0B0;stroke-width:0.5;stroke-miterlimit:10;" d="M113.702,365.269
				c0.496,3.539,3.768,6.007,7.307,5.51c3.539-0.496,6.007-3.768,5.51-7.307c-0.496-3.539-3.768-6.007-7.307-5.51
				C115.673,358.458,113.206,361.73,113.702,365.269z"/>
			<path style="fill:#302F3D;" d="M109.097,364.47c-0.106-0.753,0.132-1.45,0.567-1.878c-0.751-0.683-0.766-1.444-0.434-2.445
				c0.045-0.135,0.035-0.318,0.083-0.506c-0.236-0.639-0.206-1.467,0.153-2.262c0.476-1.054,1.376-1.717,2.219-1.737
				c0.107-0.735,0.642-1.503,1.492-1.995c0.766-0.444,1.602-0.555,2.266-0.372c0.529-0.516,1.412-0.801,2.379-0.685
				c0.68,0.082,1.27,0.351,1.7,0.718c0.396-0.564,1.035-1.051,1.833-1.328c1.262-0.439,2.533-0.22,3.234,0.46
				c0.138,0.069,0.278,0.157,0.422,0.269c2.214,1.725,3.738,6.854-1.317,6.6c-5.055-0.254-4.514-1.057-6.535,1.117
				c-2.022,2.174-1.806,1.397-2.77,2.715c-1.673,2.289,1.339,3.96-0.05,5.414c-0.562,0.588-1.48,0.661-2.197,0.277
				c-0.812-0.434-1.778-1.244-1.813-2.629C109.711,365.955,109.213,365.3,109.097,364.47z"/>
			<path style="fill:none;stroke:#8C8CEE;stroke-miterlimit:10;" d="M118.529,405.4"/>
			<polygon style="fill:#302F3D;" points="175.006,430.29 183.568,424.444 175.115,423.457 172.147,426.203 			"/>
			<path style="fill:#302F3D;" d="M108.055,396.914c0,0,0.534-3.237,0.82-2.615c1.639,3.557,2.869,15.902,2.869,15.902h25.82
				v-18.152c0-0.642,0.326-1.239,0.865-1.587l8.744-5.639c0,0-9.609-10.525-16.248-12.246c-1.693-0.439-3.642-0.654-5.606-0.731
				c-0.467-0.018-0.934-0.026-1.399-0.022c-4.564,0.033-8.739,0.808-12.726,2.86c-11.047,5.684-14.196,16.768-14.196,16.768
				L108.055,396.914z"/>
			<path style="fill:#7A7AE2;" d="M160.976,395.956c-0.089-0.063-0.177-0.124-0.264-0.184c-0.363-0.249-0.734-0.442-1.108-0.604
				c-0.299-0.265-0.677-0.445-1.158-0.51c-5.435-0.732-20.43,6.771-28.234,12.105c-7.803,5.334-11.243,19.18-3.76,19.305
				c6.356,0.106,23.828-11.411,28.949-14.884l14.953,16.975l2.783-2.669l4.187-4.016
				C177.324,421.475,169.845,402.235,160.976,395.956z"/>
			<polygon style="fill:#302F3D;" points="154.699,426.522 156.322,431.121 165.84,428.822 157.644,425.49 			"/>
			<g>
				<path style="fill:#B7E7EA;" d="M177.174,381.709c1.466,13.147-8.003,24.992-21.149,26.458
					c-13.147,1.466-24.992-8.003-26.458-21.149c-1.466-13.147,8.003-24.992,21.149-26.458
					C163.862,359.094,175.708,368.563,177.174,381.709z"/>
				<g>
					<path style="fill:#FFFFFF;" d="M157.394,397.91c-2.84,0.862-13.724,3.31-17.86-8.199c-1.188-3.304-1.409-6.924-0.225-10.229
						c0.446-1.244,1.106-2.502,2.085-3.553c0.343-0.369,0.226-0.961-0.239-1.154l-0.469-0.195c-0.639-0.266-0.568-1.194,0.104-1.359
						l5.706-1.4c0.493-0.121,0.953,0.295,0.881,0.798l-0.746,5.219c-0.088,0.617-0.866,0.835-1.263,0.355v0
						c-0.313-0.379-0.906-0.342-1.162,0.077c-1.048,1.711-3.044,5.941-1.054,10.973c1.574,3.979,4.882,7.05,13.194,5.204
						c0.363-0.081,0.733,0.121,0.847,0.476l0.669,2.084C157.985,397.386,157.776,397.794,157.394,397.91z"/>
					<path style="fill:#FFFFFF;" d="M148.949,369.415c2.814-0.944,13.622-3.706,18.09,7.678c1.283,3.268,1.609,6.88,0.521,10.219
						c-0.41,1.257-1.033,2.533-1.981,3.612c-0.332,0.378-0.198,0.967,0.272,1.147l0.474,0.181c0.647,0.247,0.602,1.177-0.065,1.361
						l-5.664,1.564c-0.49,0.135-0.961-0.267-0.903-0.772l0.594-5.238c0.07-0.619,0.842-0.86,1.252-0.392l0,0
						c0.324,0.37,0.915,0.316,1.16-0.111c0.998-1.74,2.87-6.027,0.735-10.999c-1.688-3.932-5.084-6.906-13.34-4.82
						c-0.361,0.091-0.736-0.1-0.86-0.451l-0.729-2.064C148.373,369.956,148.57,369.542,148.949,369.415z"/>
				</g>
			</g>
			<path style="fill:#F4B0B0;" d="M173.697,371.176c0,0-2.193,1.646-1.514,3.759c0.679,2.113,3.871,1.572,3.871,1.572
				S176.066,370.613,173.697,371.176z"/>
			<path style="fill:#8C8CEE;" d="M112.135,410.201c0,0-3.044,13.882,8.524,16.195c11.568,2.314,24.354-15.343,24.354-15.343
				l6.918,16.439l9.034-3.166c0,0-4.262-26.181-13.029-28.738c-8.768-2.557-23.867,14.369-23.867,14.369L112.135,410.201z"/>
			<path style="fill:#FFBCBC;" d="M131.121,395.719c0,0,0.503-1.033,0-1.888c-0.503-0.855-3.141,3.879-3.141,3.88
				c-3.321,1.605-19.778,9.389-20.761,6.486c-1.094-3.229,0.307-7.54,0.307-7.54l-9.782-4.838c0,0-4.816,17.41,5.953,21.334
				c10.179,3.709,26.516-10.88,26.516-10.88s4.985-0.995,9.212-6.077C143.651,391.113,131.121,395.719,131.121,395.719z"/>
		</g>
		<g>
			<path style="fill:#F4B0B0;" d="M354.715,338.148c-1.419,0.795-2.978,3.18-4.822,3.47c-1.702,0.268-4.019-0.872-5.971-1.477
				c-9.63-2.982-12.725-5.953-12.725-5.953s-2.973-3.624-3.269-2.819c-0.297,0.805,0.29,1.607,0.29,1.607s-11.368-1.993-6.991,1.682
				c4.378,3.675,8.772,3.755,8.772,3.755s17.174,12.309,22.651,10.658c3.884-1.171,7.443-4.47,9.861-7.203
				C364.49,339.63,357.854,336.388,354.715,338.148z"/>
			<g>
				
					<ellipse transform="matrix(0.6727 -0.7399 0.7399 0.6727 -134.0914 346.8506)" style="fill:#B7E7EA;" cx="325.001" cy="324.989" rx="23.155" ry="23.155"/>
				<path style="fill:#FFFFFF;" d="M336.244,312.476c1.628,3.471,2.033,7.457,0.833,11.098c-2.05,6.223-7.398,9.233-12.573,9.914
					c-0.203,0.027,0.426,2.48-0.314,3.172c-0.658,0.615-1.705,0.133-2.499-0.29c-2.859-1.523-4.962-3.804-6.594-6.556
					c-0.111-0.188-0.129-0.422-0.055-0.628c0.73-2.019,1.213-3.88,2.712-5.434c1.403-1.455,3.534-3.679,5.524-3.276
					c0.882,0.178,0.081,2.24,0.454,3.501c0.016,0.346,0.695,0.719,1.224,0.183c0.284-0.287,0.663-0.684,1.009-0.893
					c3.093-1.867,4.95-4.579,6.321-7.842c0.109-0.259-0.06-0.429-0.222-0.807c-0.289-0.674-0.851-1.734-1.3-2.314
					c-2.549-3.296-4.091-4.069-7.16-5.078c-0.415-0.136-0.906,0.118-0.947,0.553c-0.079,0.861,0.318,2.202,0.369,3.058
					c0.014,0.234-0.174,0.413-0.407,0.404c-0.709-0.028-1.411,0.072-2.106,0.215c-1.18,0.243-2.318,0.68-3.346,1.307
					c-2.902,1.769-5.179,4.063-6.453,7.189c-0.428,1.05-0.804,2.287-0.95,3.968c-0.257,2.958,0.398,5.959,1.866,8.54
					c0.45,0.792,0.966,1.551,1.552,2.276c0.667,0.825,1.413,1.573,2.238,2.243c0.457,0.371,0.959,0.676,1.435,1.019
					c0.079,0.043,0.159,0.087,0.238,0.13c4.126,1.601,8.207,1.706,12.205,0.238c6.93-2.545,11.541-9.485,11.193-16.859
					c-0.194-4.121-1.747-7.732-4.615-10.827C334.919,309.649,335.447,310.776,336.244,312.476z"/>
			</g>
			<polygon style="fill:#7A7AE2;" points="363.996,420.029 364.199,424.913 352.21,426.649 359.404,420.367 			"/>
			<path style="fill:#302F3D;" d="M355.56,371.235c0,0-5.401,21.088-5.07,30.524c0.331,9.436,8.12,19.015,8.12,19.015h5.623v-20.159
				c0,0,8.036-21.732,6.836-29.381H355.56z"/>
			<path style="fill:#1D1D26;" d="M363.654,307.871c0,0,10.446-5.434,14.066,6.936c3.454,11.805-0.306,16.246,6.047,19.15
				c6.353,2.904,7.704,8.809,6.095,11.809c-1.609,2.999,1.749,5.032-0.71,8.705c-2.46,3.673-8.594,2.086-9.806-1.242
				c-0.792-2.176-1.223-2.763-2.061-2.731c-1.631,0.063-3.248-0.323-4.652-1.155c-5.402-3.203-16.665-10.97-17.841-20.64
				C353.239,315.929,356.702,307.862,363.654,307.871z"/>
			<path style="fill:#8C8CEE;" d="M366.825,338.897c-1.25,2.602-3.451,5.62-7.325,8.235c-0.317,0.214-0.749,0.182-1.035-0.073
				l-7.661-6.846c-0.267-0.239-0.352-0.619-0.214-0.95c0.869-2.087,4.326-9.278,10.709-9.293
				C365.845,329.96,368.794,334.8,366.825,338.897z"/>
			<polyline style="fill:#FFBCBC;stroke:#F4B0B0;stroke-width:0.5769;stroke-miterlimit:10;" points="364.644,326.006 
				364.457,331.626 372.269,331.655 372.485,318.585 			"/>
			<path style="fill:#FFBCBC;stroke:#F4B0B0;stroke-width:0.5769;stroke-miterlimit:10;" d="M372.483,318.984
				c-0.014,3.894-3.183,7.039-7.077,7.025c-3.894-0.015-7.039-3.183-7.025-7.077c0.014-3.894,3.183-7.039,7.077-7.025
				C369.353,311.922,372.497,315.09,372.483,318.984z"/>
			<path style="fill:#302F3D;" d="M367.099,309.356c0-0.001,0-0.005,0-0.005s-0.029-0.002-0.07-0.003
				c-0.606-0.064-1.12-0.02-1.472,0.041c-3.191,0.265-10.135,1.927-8.948,11.461c0,0,6.213,0.81,8.338-4.953
				c0.132-0.357,0.255-0.695,0.371-1.014c1.923,5.922,9.069,7.197,9.069,7.197C375.473,312.844,369.545,309.647,367.099,309.356z"/>
			<polygon style="fill:#7A7AE2;" points="378.803,419.642 378.971,424.529 366.969,426.178 374.208,419.948 			"/>
			<path style="fill:#1D1D26;" d="M362.876,371.235c0,0-0.165,9.974,2.139,22.794c1.488,8.284,4.947,17.57,6.992,26.745h7.112
				c0,0,2.646-21.303,1.158-49.539H362.876z"/>
			<path style="fill:#7A7AE2;" d="M373.448,329.572c-0.098-0.012-0.193-0.036-0.291-0.054c-0.234-0.039-0.47-0.075-0.707-0.108
				c-0.326-0.047-0.655-0.09-0.99-0.125c-0.143-0.015-0.286-0.03-0.429-0.043c-0.394-0.037-0.79-0.066-1.189-0.089
				c-0.111-0.006-0.221-0.014-0.332-0.019c-0.126-0.006-0.25-0.017-0.376-0.022c-0.295-0.012-0.59-0.012-0.885-0.014
				c-0.09-0.001-0.177-0.007-0.267-0.008c-0.035,0-0.07,0.002-0.105,0.002c-0.035,0-0.07-0.002-0.105-0.002
				c-0.09,0.001-0.178,0.006-0.267,0.008c-0.295,0.003-0.59,0.003-0.885,0.014c-0.126,0.005-0.25,0.016-0.376,0.022
				c-0.111,0.005-0.221,0.013-0.332,0.019c-0.4,0.023-0.796,0.052-1.189,0.089c-0.143,0.013-0.287,0.028-0.429,0.043
				c-0.335,0.036-0.664,0.078-0.991,0.125c-0.236,0.033-0.472,0.069-0.707,0.108c-0.098,0.017-0.195,0.035-0.291,0.054
				c-2.391,0.426-2.754,0.781-4.66,2.416c-6.994,5.999-4.797,18.375-4.518,18.981c0.77,1.67,2.433,20.266,2.433,20.266h24.633
				l0.663-9.327c0.408-4.495,1.541-9.114,1.77-10.938C383.409,344.756,385.551,331.131,373.448,329.572z"/>
			<path style="fill:#FFBCBC;" d="M368.005,338.808c-1.936,0.894-4.171,2.258-6.967,2.156c-2.444-0.089-5.356-1.463-8.342-3.081
				c-8.863-4.802-9.497-5.208-9.497-5.208l-0.91-0.666c0,0-1.936-4.268-2.431-3.567c-0.494,0.701-0.134,1.627-0.134,1.627
				s-10.469-4.86-7.188-0.18c3.281,4.68,7.505,5.892,7.505,5.892l0.763,0.685c0,0,13.821,13.103,19.54,12.922
				c3.936-0.125,9.102-2.886,13.064-5.434C376.867,341.73,371.465,337.211,368.005,338.808z"/>
			<path style="fill:#8C8CEE;" d="M380.682,343.293c-2.144,1.933-5.325,3.891-9.901,4.841c-0.375,0.078-0.762-0.115-0.93-0.46
				l-4.491-9.24c-0.157-0.323-0.091-0.706,0.162-0.96c1.596-1.602,7.522-6.944,13.433-4.536
				C383.165,334.652,384.058,340.249,380.682,343.293z"/>
			<path style="fill:#7A7AE2;" d="M358.234,312.844c0.608-1.044,1.502-1.919,2.526-2.604c1.027-0.688,2.237-1.134,3.488-1.277
				c1.246-0.113,2.542-0.004,3.683,0.491c0.598,0.171,1.104,0.545,1.639,0.825c0.502,0.343,0.966,0.739,1.412,1.134
				c-0.573-0.21-1.093-0.484-1.638-0.694c-0.563-0.164-1.082-0.425-1.649-0.515c-1.098-0.311-2.233-0.352-3.332-0.241
				C362.137,310.187,360.073,311.33,358.234,312.844z"/>
		</g>
	</g>
</g>
</svg>
